<svg width="20" height="20" viewBox="0 0 20 20" fill="none" xmlns="http://www.w3.org/2000/svg">
<path d="M18.3011 11.7708H11.8738V18.1424C11.8738 19.1683 11.0349 20 9.99999 20C8.96512 20 8.12619 19.1683 8.12619 18.1424V11.7708H1.69886C0.733556 11.6717 0 10.8653 0 9.9033C0 8.94124 0.733556 8.13485 1.69886 8.03576H8.10604V1.68413C8.20601 0.727196 9.01945 0 9.98992 0C10.9604 0 11.7738 0.727196 11.8738 1.68413V8.03576H18.3011C19.2664 8.13485 20 8.94124 20 9.9033C20 10.8653 19.2664 11.6717 18.3011 11.7708Z" fill="#4FB8FF"/>
</svg>
