<svg width="77" height="77" viewBox="0 0 77 77" fill="none" xmlns="http://www.w3.org/2000/svg">
<rect x="13.1062" y="12.5802" width="63.7569" height="63.7569" rx="7.26723" fill="#84949E"/>
<rect x="0.526123" width="63.7569" height="63.7569" rx="7.30909" fill="#A4B2BB"/>
<path fill-rule="evenodd" clip-rule="evenodd" d="M18.3927 29.7246C17.1888 30.9286 17.1888 32.8805 18.3927 34.0844L30.2506 45.9423C31.4545 47.1463 33.4065 47.1463 34.6104 45.9423L46.4683 34.0845C47.6722 32.8805 47.6722 30.9286 46.4683 29.7246L34.6104 17.8668C33.4065 16.6628 31.4545 16.6628 30.2506 17.8668L18.3927 29.7246ZM25.2155 31.1802C24.8155 31.5802 24.8155 32.2289 25.2155 32.6289L31.7076 39.121C32.1077 39.5211 32.7563 39.5211 33.1564 39.121L39.6484 32.6289C40.0485 32.2289 40.0485 31.5802 39.6484 31.1802L33.1564 24.6881C32.7563 24.288 32.1077 24.288 31.7076 24.6881L25.2155 31.1802Z" fill="#1F1F1F"/>
</svg>
