<svg width="101" height="100" viewBox="0 0 101 100" fill="none" xmlns="http://www.w3.org/2000/svg">
<path fill-rule="evenodd" clip-rule="evenodd" d="M60.7365 18.5087L90.9359 71.0717C91.6006 72.6407 91.8914 73.9164 91.9744 75.2418C92.1406 78.3383 91.0606 81.3482 88.942 83.6644C86.8235 85.9724 83.9573 87.3348 80.8418 87.5H20.0275C18.7397 87.4216 17.452 87.1284 16.2473 86.6742C10.2241 84.2383 7.31627 77.3846 9.76712 71.4433L40.1743 18.4716C41.2128 16.6095 42.7913 15.0034 44.7437 13.9712C50.3931 10.8293 57.5795 12.8936 60.7365 18.5087ZM54.0486 53.1488C54.0486 55.1306 52.4285 56.7863 50.4346 56.7863C48.4407 56.7863 46.7791 55.1306 46.7791 53.1488V41.4686C46.7791 39.4827 48.4407 37.8766 50.4346 37.8766C52.4285 37.8766 54.0486 39.4827 54.0486 41.4686V53.1488ZM50.4346 70.9065C48.4407 70.9065 46.7791 69.2509 46.7791 67.2732C46.7791 65.2873 48.4407 63.6358 50.4346 63.6358C52.4285 63.6358 54.0486 65.2501 54.0486 67.2278C54.0486 69.2509 52.4285 70.9065 50.4346 70.9065Z" fill="#200E32"/>
</svg>
