<svg width="80" height="80" viewBox="0 0 80 80" fill="none" xmlns="http://www.w3.org/2000/svg">
<path fill-rule="evenodd" clip-rule="evenodd" d="M13.8875 37.6855L17.2583 34.3147C18.8283 32.7447 21.3737 32.7447 22.9437 34.3147C24.4016 35.7725 24.5057 38.0715 23.2561 39.6495L22.9437 40.0001L19.5729 43.371C14.8629 48.0809 14.8629 55.7173 19.5729 60.4272C24.1146 64.969 31.3775 65.1312 36.1136 60.9139L36.6292 60.4272L40 57.0564C41.57 55.4864 44.1154 55.4864 45.6854 57.0564C47.1433 58.5142 47.2474 60.8132 45.9978 62.3912L45.6854 62.7418L42.3146 66.1127C34.4646 73.9626 21.7374 73.9626 13.8875 66.1127C6.24409 58.4693 6.04295 46.202 13.284 38.3152L13.8875 37.6855ZM37.6855 13.8875C45.5355 6.03752 58.2627 6.03752 66.1127 13.8875C73.9626 21.7374 73.9626 34.4646 66.1127 42.3146L62.7418 45.6854C61.1718 47.2554 58.6264 47.2554 57.0564 45.6854C55.4864 44.1154 55.4864 41.57 57.0564 40L60.4272 36.6292C65.1372 31.9192 65.1372 24.2828 60.4272 19.5729C55.7173 14.8629 48.0809 14.8629 43.371 19.5729L40.0001 22.9437C38.4301 24.5137 35.8847 24.5137 34.3147 22.9437C32.7447 21.3737 32.7447 18.8283 34.3147 17.2583L37.6855 13.8875ZM41.6854 32.6292C43.2554 31.0592 45.8009 31.0592 47.3708 32.6292C48.9408 34.1991 48.9408 36.7446 47.3708 38.3146L38.3146 47.3708C36.7446 48.9408 34.1991 48.9408 32.6292 47.3708C31.0592 45.8009 31.0592 43.2554 32.6292 41.6854L41.6854 32.6292Z" fill="black"/>
</svg>
