<svg width="78" height="93" viewBox="0 0 78 93" fill="none" xmlns="http://www.w3.org/2000/svg">
<path d="M2.87717 54.6682C3.32047 55.1158 4.97656 57.0076 6.53228 58.5785C15.6073 68.4176 39.3028 84.5064 51.6984 89.4302C53.5803 90.2156 58.3395 91.8879 60.8905 92.0061C63.3245 92.0061 65.6497 91.4402 67.8662 90.3254C70.6347 88.763 72.8428 86.2969 74.0639 83.3916C74.8418 81.3816 76.063 75.343 76.063 75.2332C77.2758 68.6372 77.9365 57.9113 77.9365 46.0537C77.9365 34.7704 77.2758 24.4837 76.2804 17.7779C76.1717 17.6597 74.9505 10.1685 73.6207 7.601C71.1867 2.90526 66.4275 -1.52588e-05 61.3338 -1.52588e-05H60.8905C57.57 0.109772 50.5943 3.02351 50.5943 3.12485C38.8595 8.04862 15.7244 23.3605 6.42355 33.5374C6.42355 33.5374 3.79722 36.1555 2.65971 37.7855C0.88652 40.1334 -7.62939e-05 43.0386 -7.62939e-05 45.9439C-7.62939e-05 49.187 0.995255 52.2021 2.87717 54.6682Z" fill="#4FB8FF"/>
<path d="M5.76471 54.3294C6.1526 54.7211 7.60167 56.3764 8.96293 57.7509C16.9036 66.3602 37.6371 80.4379 48.4833 84.7462C50.1299 85.4334 54.2942 86.8966 56.5264 87.0001C58.6561 87.0001 60.6907 86.505 62.6301 85.5295C65.0525 84.1624 66.9846 82.0045 68.0531 79.4624C68.7338 77.7036 69.8023 72.4199 69.8023 72.3238C70.8635 66.5523 71.4417 57.1671 71.4417 46.7918C71.4417 36.9189 70.8635 27.918 69.9926 22.0504C69.8974 21.947 68.8289 15.3922 67.6653 13.1456C65.5356 9.03687 61.3713 6.49474 56.9143 6.49474H56.5264C53.6209 6.59081 47.5172 9.14033 47.5172 9.229C37.2492 13.5373 17.0061 26.9352 8.86779 35.84C8.86779 35.84 6.56975 38.1308 5.57442 39.5571C4.02289 41.6115 3.24712 44.1536 3.24712 46.6957C3.24712 49.5334 4.11803 52.1716 5.76471 54.3294Z" fill="#A4B2BB"/>
</svg>
