<svg width="101" height="100" viewBox="0 0 101 100" fill="none" xmlns="http://www.w3.org/2000/svg">
<path fill-rule="evenodd" clip-rule="evenodd" d="M71.366 60.5083C73.086 60.5083 74.482 59.1083 74.482 57.3833V49.6666C74.482 47.9416 73.086 46.5416 71.366 46.5416H47.7175C46.3714 42.0958 42.2915 38.8291 37.4222 38.8291C31.4644 38.8291 26.6159 43.6916 26.6159 49.6666C26.6159 55.6458 31.4644 60.5083 37.4222 60.5083C42.2915 60.5083 46.3714 57.2416 47.7175 52.7916H56.4922V57.3833C56.4922 59.1083 57.8882 60.5083 59.6082 60.5083C61.3283 60.5083 62.7242 59.1083 62.7242 57.3833V52.7916H68.25V57.3833C68.25 59.1083 69.6459 60.5083 71.366 60.5083ZM32.5404 8H68.5574C82.6334 8 92.0937 17.9083 92.0937 32.6542V66.6833C92.0937 81.4292 82.6334 91.3333 68.5532 91.3333H32.5404C18.4602 91.3333 9 81.4292 9 66.6833V32.6542C9 17.9083 18.4602 8 32.5404 8ZM32.855 50.0006C32.855 47.4672 34.9116 45.4089 37.4335 45.4089C39.9554 45.4089 42.012 47.4672 42.012 50.0006C42.012 52.5297 39.9554 54.5881 37.4335 54.5881C34.9116 54.5881 32.855 52.5297 32.855 50.0006Z" fill="#200E32"/>
</svg>
