<svg width="100" height="100" viewBox="0 0 100 100" fill="none" xmlns="http://www.w3.org/2000/svg">
<path fill-rule="evenodd" clip-rule="evenodd" d="M35.1598 12.5C36.9048 12.5 38.3215 13.8933 38.3215 15.6134C38.3215 17.3295 36.9089 18.7227 35.1598 18.7227L28.3918 18.7268C22.7747 18.735 18.2045 23.2335 18.2045 28.7616V36.5084C18.2045 38.2244 16.7836 39.6218 15.0386 39.6218C13.2937 39.6218 11.8769 38.2244 11.8769 36.5084V28.7616C11.8769 19.8055 19.2847 12.5123 28.3876 12.5041L35.1556 12.5H35.1598ZM64.9608 12.5013H71.5792C80.7071 12.5013 88.1274 19.7986 88.1274 28.7751V36.5096C88.1274 38.2257 86.7148 39.623 84.9657 39.623C83.2207 39.623 81.8039 38.2257 81.8039 36.5096V28.7751C81.8039 23.2307 77.2172 18.7199 71.5792 18.7199H64.9608C63.2159 18.7199 61.7991 17.3307 61.7991 15.6147C61.7991 13.8945 63.2159 12.5013 64.9608 12.5013ZM61.4786 28.0944H38.5281C33.2766 28.1475 29.0555 32.3682 29.1012 37.5367V42.7257C29.1136 43.3304 29.608 43.8248 30.2229 43.8453H69.7756C70.3946 43.8289 70.889 43.3345 70.9098 42.7257V37.5367C70.9139 35.0403 69.9334 32.6419 68.1635 30.8564C66.4061 29.0872 63.9922 28.0944 61.4786 28.0944ZM7.4658 50.1718H92.5413C94.2863 50.1718 95.703 51.5651 95.703 53.2852C95.703 55.0012 94.2863 56.3904 92.5413 56.3904H88.129V71.222C88.129 80.2027 80.7046 87.5 71.5809 87.5H64.9625C63.2134 87.5 61.7966 86.1067 61.7966 84.3866C61.7966 82.6705 63.2134 81.2773 64.9625 81.2773H71.5809C77.2188 81.2773 81.8056 76.7706 81.8056 71.222V56.3904H70.9078V60.5212C70.9494 65.6898 66.7324 69.9145 61.4767 69.9636H38.5262C33.2747 69.9145 29.0577 65.6898 29.0992 60.5212V56.3904H18.2015V71.2384C18.2015 76.7665 22.7758 81.265 28.3971 81.2732L35.1609 81.2773C36.9059 81.2773 38.3226 82.6705 38.3226 84.3866C38.3185 86.1067 36.9059 87.5 35.1568 87.5L28.3888 87.4959C19.2859 87.4877 11.8739 80.1945 11.8739 71.2384V56.3904H7.4658C5.72083 56.3904 4.29993 55.0012 4.29993 53.2852C4.29993 51.5651 5.72083 50.1718 7.4658 50.1718Z" fill="#200E32"/>
</svg>
