<svg width="77" height="78" viewBox="0 0 77 78" fill="none" xmlns="http://www.w3.org/2000/svg">
<path d="M74.7082 2.24908C72.799 0.261733 69.9733 -0.473313 67.3386 0.304514L5.90024 18.3851C3.12043 19.1707 1.15013 21.4147 0.619369 24.2616C0.0771539 27.1629 1.97109 30.8497 4.44543 32.3898L23.6559 44.3373C25.6262 45.5662 28.1693 45.259 29.7997 43.5944L51.7976 21.1891C52.905 20.0185 54.7378 20.0185 55.8452 21.1891C56.9525 22.3131 56.9525 24.1449 55.8452 25.3116L33.8091 47.7169C32.1748 49.3815 31.8693 51.9638 33.0721 53.9745L44.8099 73.6146C46.1846 75.9442 48.552 77.2704 51.1485 77.2704C51.454 77.2704 51.7976 77.2704 52.1031 77.2276C55.0815 76.8426 57.4489 74.7775 58.3271 71.8606L76.541 9.7551C77.3429 7.11049 76.6174 4.23254 74.7082 2.24908Z" fill="#A4B2BB"/>
</svg>
