<svg width="180" height="29" viewBox="0 0 180 29" fill="none" xmlns="http://www.w3.org/2000/svg">
<path d="M1.64986 22.5901V5.86281H4.68004V20.05H12.0472V22.5901H1.64986ZM18.1566 22.8433C17.3616 22.8433 16.6456 22.7017 16.0085 22.4186C15.3769 22.13 14.8759 21.7053 14.5057 21.1444C14.1409 20.5836 13.9585 19.8921 13.9585 19.0698C13.9585 18.362 14.0891 17.7766 14.3505 17.3138C14.6119 16.851 14.9685 16.4807 15.4205 16.203C15.8724 15.9253 16.3815 15.7157 16.9478 15.5741C17.5195 15.4271 18.1103 15.3209 18.7202 15.2556C19.4553 15.1793 20.0515 15.1113 20.5089 15.0514C20.9663 14.986 21.2984 14.888 21.5053 14.7573C21.7177 14.6212 21.8239 14.4116 21.8239 14.1284V14.0794C21.8239 13.4641 21.6415 12.9877 21.2766 12.6501C20.9118 12.3125 20.3864 12.1437 19.7003 12.1437C18.9761 12.1437 18.4016 12.3016 17.9769 12.6174C17.5576 12.9332 17.2745 13.3062 17.1275 13.7364L14.3668 13.3443C14.5846 12.582 14.944 11.945 15.445 11.4331C15.9459 10.9158 16.5585 10.5292 17.2827 10.2733C18.0069 10.012 18.8073 9.88128 19.6839 9.88128C20.2884 9.88128 20.89 9.95207 21.489 10.0936C22.088 10.2352 22.6352 10.4693 23.1307 10.7961C23.6262 11.1173 24.0237 11.5556 24.3232 12.111C24.6281 12.6664 24.7805 13.3607 24.7805 14.1938V22.5901H21.9382V20.8667H21.8402C21.6605 21.2152 21.4073 21.5419 21.0806 21.8468C20.7594 22.1463 20.3537 22.3886 19.8636 22.5738C19.379 22.7534 18.81 22.8433 18.1566 22.8433ZM18.9244 20.6707C19.5179 20.6707 20.0324 20.5536 20.468 20.3195C20.9036 20.0799 21.2385 19.7641 21.4727 19.372C21.7122 18.98 21.832 18.5526 21.832 18.0897V16.6114C21.7395 16.6876 21.5816 16.7584 21.3583 16.8238C21.1405 16.8891 20.8955 16.9463 20.6232 16.9953C20.351 17.0443 20.0814 17.0878 19.8146 17.126C19.5478 17.1641 19.3164 17.1967 19.1204 17.224C18.6793 17.2839 18.2846 17.3819 17.9361 17.518C17.5876 17.6541 17.3126 17.8447 17.1112 18.0897C16.9097 18.3293 16.8089 18.6397 16.8089 19.0208C16.8089 19.5653 17.0077 19.9765 17.4052 20.2542C17.8027 20.5318 18.3091 20.6707 18.9244 20.6707ZM27.7536 22.5901V10.0446H30.5795V12.1764H30.7266C30.9879 11.4576 31.4208 10.8968 32.0252 10.4939C32.6296 10.0855 33.3511 9.88128 34.1896 9.88128C35.0391 9.88128 35.7551 10.0882 36.3377 10.502C36.9258 10.9104 37.3396 11.4685 37.5792 12.1764H37.7099C37.9876 11.4794 38.4558 10.924 39.1147 10.5102C39.779 10.0909 40.5658 9.88128 41.4751 9.88128C42.6295 9.88128 43.5715 10.2461 44.3011 10.9757C45.0308 11.7054 45.3956 12.7699 45.3956 14.1693V22.5901H42.4308V14.6267C42.4308 13.848 42.2238 13.279 41.81 12.9196C41.3962 12.5548 40.8898 12.3724 40.2908 12.3724C39.5775 12.3724 39.0194 12.5957 38.6165 13.0421C38.219 13.4832 38.0202 14.0577 38.0202 14.7655V22.5901H35.1207V14.5042C35.1207 13.8562 34.9247 13.3389 34.5327 12.9523C34.1461 12.5657 33.6397 12.3724 33.0135 12.3724C32.5888 12.3724 32.2022 12.4813 31.8537 12.6991C31.5052 12.9115 31.2275 13.2137 31.0206 13.6057C30.8137 13.9923 30.7102 14.4443 30.7102 14.9615V22.5901H27.7536ZM53.0507 22.8106C52.0651 22.8106 51.183 22.5574 50.4044 22.051C49.6257 21.5446 49.0104 20.8095 48.5585 19.8458C48.1066 18.882 47.8806 17.7113 47.8806 16.3337C47.8806 14.9398 48.1093 13.7636 48.5667 12.8053C49.0295 11.8415 49.653 11.1146 50.4371 10.6245C51.2211 10.129 52.0951 9.88128 53.0589 9.88128C53.7939 9.88128 54.3983 10.0065 54.8721 10.257C55.3458 10.502 55.7215 10.7988 55.9992 11.1473C56.2769 11.4903 56.492 11.8143 56.6444 12.1192H56.767V5.86281H59.7318V22.5901H56.8241V20.6135H56.6444C56.492 20.9184 56.2715 21.2424 55.9829 21.5855C55.6943 21.9231 55.3131 22.2117 54.8394 22.4512C54.3657 22.6908 53.7694 22.8106 53.0507 22.8106ZM53.8756 20.3848C54.5018 20.3848 55.0354 20.216 55.4765 19.8784C55.9175 19.5354 56.2524 19.059 56.4811 18.4491C56.7098 17.8393 56.8241 17.1287 56.8241 16.3174C56.8241 15.506 56.7098 14.8009 56.4811 14.2019C56.2578 13.603 55.9257 13.1374 55.4846 12.8053C55.049 12.4731 54.5127 12.3071 53.8756 12.3071C53.2168 12.3071 52.6668 12.4786 52.2258 12.8216C51.7847 13.1647 51.4526 13.6384 51.2293 14.2428C51.0061 14.8472 50.8944 15.5387 50.8944 16.3174C50.8944 17.1015 51.0061 17.8011 51.2293 18.4164C51.458 19.0263 51.7929 19.5082 52.2339 19.8621C52.6804 20.2106 53.2277 20.3848 53.8756 20.3848ZM68.4364 22.8351C67.1786 22.8351 66.0923 22.5738 65.1776 22.051C64.2682 21.5229 63.5685 20.7769 63.0785 19.8131C62.5884 18.8439 62.3434 17.7031 62.3434 16.3909C62.3434 15.1004 62.5884 13.9678 63.0785 12.9931C63.574 12.013 64.2655 11.2507 65.1531 10.7062C66.0406 10.1563 67.0833 9.88128 68.2812 9.88128C69.0545 9.88128 69.7841 10.0065 70.4702 10.257C71.1617 10.502 71.7715 10.8832 72.2997 11.4005C72.8333 11.9177 73.2526 12.5766 73.5575 13.377C73.8625 14.172 74.0149 15.1194 74.0149 16.2193V17.126H63.7319V15.1331H71.1808C71.1753 14.5668 71.0528 14.0631 70.8132 13.622C70.5736 13.1756 70.2388 12.8243 69.8086 12.5684C69.3839 12.3125 68.8884 12.1845 68.3221 12.1845C67.7177 12.1845 67.1868 12.3316 66.7294 12.6256C66.272 12.9142 65.9154 13.2953 65.6594 13.7691C65.409 14.2373 65.281 14.7519 65.2756 15.3127V17.0524C65.2756 17.7821 65.409 18.4083 65.6758 18.931C65.9426 19.4483 66.3156 19.8458 66.7947 20.1235C67.2739 20.3957 67.8348 20.5318 68.4773 20.5318C68.9074 20.5318 69.2968 20.472 69.6452 20.3522C69.9937 20.2269 70.2959 20.0445 70.5518 19.8049C70.8078 19.5653 71.0011 19.2686 71.1317 18.9147L73.8924 19.225C73.7182 19.9547 73.386 20.5917 72.896 21.1363C72.4113 21.6753 71.7906 22.0946 71.0337 22.3941C70.2769 22.6881 69.4111 22.8351 68.4364 22.8351ZM79.4729 15.2392V22.5901H76.5162V10.0446H79.3422V12.1764H79.4893C79.7778 11.474 80.238 10.9158 80.8696 10.502C81.5067 10.0882 82.2935 9.88128 83.23 9.88128C84.0958 9.88128 84.8499 10.0664 85.4925 10.4367C86.1404 10.8069 86.6414 11.3433 86.9953 12.0457C87.3547 12.7481 87.5316 13.6003 87.5262 14.6022V22.5901H84.5695V15.0595C84.5695 14.221 84.3517 13.5649 83.9161 13.0912C83.4859 12.6174 82.8897 12.3806 82.1274 12.3806C81.6101 12.3806 81.15 12.4949 80.7471 12.7236C80.3496 12.9469 80.0365 13.2708 79.8078 13.6956C79.5845 14.1203 79.4729 14.6348 79.4729 15.2392Z" fill="#E0E0E0"/>
<path d="M125.888 5.86281L130.241 19.029H130.413L134.758 5.86281H138.09L132.193 22.5901H128.452L122.564 5.86281H125.888ZM142.47 22.8433C141.675 22.8433 140.959 22.7017 140.322 22.4186C139.69 22.13 139.189 21.7053 138.819 21.1444C138.454 20.5836 138.272 19.8921 138.272 19.0698C138.272 18.362 138.403 17.7766 138.664 17.3138C138.925 16.851 139.282 16.4807 139.734 16.203C140.186 15.9253 140.695 15.7157 141.261 15.5741C141.833 15.4271 142.424 15.3209 143.034 15.2556C143.769 15.1793 144.365 15.1113 144.822 15.0514C145.28 14.986 145.612 14.888 145.819 14.7573C146.031 14.6212 146.137 14.4116 146.137 14.1284V14.0794C146.137 13.4641 145.955 12.9877 145.59 12.6501C145.225 12.3125 144.7 12.1437 144.014 12.1437C143.29 12.1437 142.715 12.3016 142.29 12.6174C141.871 12.9332 141.588 13.3062 141.441 13.7364L138.68 13.3443C138.898 12.582 139.257 11.945 139.758 11.4331C140.259 10.9158 140.872 10.5292 141.596 10.2733C142.32 10.012 143.121 9.88128 143.997 9.88128C144.602 9.88128 145.204 9.95207 145.802 10.0936C146.401 10.2352 146.949 10.4693 147.444 10.7961C147.94 11.1173 148.337 11.5556 148.637 12.111C148.942 12.6664 149.094 13.3607 149.094 14.1938V22.5901H146.252V20.8667H146.154C145.974 21.2152 145.721 21.5419 145.394 21.8468C145.073 22.1463 144.667 22.3886 144.177 22.5738C143.693 22.7534 143.123 22.8433 142.47 22.8433ZM143.238 20.6707C143.831 20.6707 144.346 20.5536 144.782 20.3195C145.217 20.0799 145.552 19.7641 145.786 19.372C146.026 18.98 146.146 18.5526 146.146 18.0897V16.6114C146.053 16.6876 145.895 16.7584 145.672 16.8238C145.454 16.8891 145.209 16.9463 144.937 16.9953C144.664 17.0443 144.395 17.0878 144.128 17.126C143.861 17.1641 143.63 17.1967 143.434 17.224C142.993 17.2839 142.598 17.3819 142.25 17.518C141.901 17.6541 141.626 17.8447 141.425 18.0897C141.223 18.3293 141.122 18.6397 141.122 19.0208C141.122 19.5653 141.321 19.9765 141.719 20.2542C142.116 20.5318 142.623 20.6707 143.238 20.6707ZM160.063 17.3138V10.0446H163.02V22.5901H160.153V20.3603H160.022C159.739 21.0627 159.274 21.6372 158.626 22.0837C157.983 22.5302 157.191 22.7534 156.249 22.7534C155.427 22.7534 154.7 22.571 154.068 22.2062C153.442 21.8359 152.952 21.2996 152.598 20.5972C152.244 19.8893 152.067 19.0345 152.067 18.0326V10.0446H155.024V17.5752C155.024 18.3702 155.242 19.0018 155.677 19.4701C156.113 19.9383 156.684 20.1725 157.392 20.1725C157.828 20.1725 158.25 20.0663 158.658 19.8539C159.067 19.6416 159.402 19.3258 159.663 18.9065C159.93 18.4818 160.063 17.9509 160.063 17.3138ZM169.017 5.86281V22.5901H166.06V5.86281H169.017ZM178.322 10.0446V12.3316H171.11V10.0446H178.322ZM172.89 7.03895H175.847V18.8167C175.847 19.2141 175.907 19.5191 176.027 19.7314C176.152 19.9383 176.315 20.0799 176.517 20.1561C176.718 20.2324 176.941 20.2705 177.187 20.2705C177.372 20.2705 177.54 20.2569 177.693 20.2296C177.851 20.2024 177.971 20.1779 178.052 20.1561L178.551 22.4676C178.393 22.522 178.167 22.5819 177.873 22.6473C177.584 22.7126 177.23 22.7507 176.811 22.7616C176.07 22.7834 175.403 22.6718 174.81 22.4267C174.216 22.1763 173.745 21.7897 173.397 21.2669C173.054 20.7442 172.885 20.0908 172.89 19.3067V7.03895Z" fill="#E0E0E0"/>
<path d="M95.5 9.59009C95.5 9.59009 102.5 8.59009 104.5 6.09009C106.5 8.49009 111 9.09009 113 9.59009C112.6 17.5901 107.333 22.7568 104.5 24.0901C98.1 20.0901 95.6667 12.9234 95.5 9.59009Z" stroke="#E0E0E0" stroke-width="2"/>
<path d="M100 12.3401C100 12.3401 103.6 11.8401 104.629 10.5901C105.657 11.7901 107.971 12.0901 109 12.3401C108.794 16.3401 106.086 18.9234 104.629 19.5901C101.337 17.5901 100.086 14.0068 100 12.3401Z" stroke="#E0E0E0" stroke-width="2"/>
</svg>
