<svg width="93" height="78" viewBox="0 0 93 78" fill="none" xmlns="http://www.w3.org/2000/svg">
<path d="M37.8579 2.87724C37.4103 3.32054 35.5185 4.97663 33.9476 6.53234C24.1085 15.6074 8.01969 39.3028 3.09592 51.6984C2.31048 53.5804 0.638258 58.3395 0.52002 60.8906C0.52002 63.3245 1.08587 65.6497 2.20069 67.8662C3.76312 70.6347 6.22923 72.8429 9.13451 74.064C11.1446 74.8419 17.1831 76.063 17.2929 76.063C23.8889 77.2758 34.6148 77.9366 46.4724 77.9366C57.7557 77.9366 68.0424 77.2758 74.7482 76.2805C74.8664 76.1718 82.3577 74.9506 84.9251 73.6207C89.6209 71.1868 92.5261 66.4276 92.5261 61.3339L92.5261 60.8906C92.4163 57.57 89.5026 50.5944 89.4013 50.5944C84.4775 38.8596 69.1657 15.7245 58.9888 6.42361C58.9888 6.42361 56.3706 3.79729 54.7406 2.65977C52.3928 0.886584 49.4875 -1.31184e-05 46.5822 -1.32453e-05C43.3391 -1.33871e-05 40.324 0.995317 37.8579 2.87724Z" fill="#A4B2BB"/>
<path d="M38.1967 7.25968C37.805 7.64756 36.1497 9.09664 34.7751 10.4579C26.1659 18.3986 12.0882 39.1321 7.77992 49.9782C7.09266 51.6249 5.62946 55.7892 5.526 58.0213C5.526 60.1511 6.02112 62.1856 6.99659 64.125C8.36371 66.5475 10.5216 68.4796 13.0637 69.5481C14.8225 70.2287 20.1062 71.2973 20.2023 71.2973C25.9738 72.3584 35.3589 72.9366 45.7343 72.9366C55.6072 72.9366 64.6081 72.3584 70.4756 71.4875C70.5791 71.3924 77.1339 70.3239 79.3805 69.1602C83.4892 67.0305 86.0313 62.8663 86.0313 58.4092L86.0313 58.0214C85.9353 55.1159 83.3858 49.0122 83.2971 49.0122C78.9888 38.7442 65.5909 18.501 56.6861 10.3628C56.6861 10.3628 54.3953 8.06471 52.969 7.06939C50.9146 5.51785 48.3725 4.74209 45.8304 4.74209C42.9927 4.74209 40.3545 5.61299 38.1967 7.25968Z" fill="#FF7F7F"/>
<path fill-rule="evenodd" clip-rule="evenodd" d="M42.5547 25.3122C42.5547 22.9019 44.52 20.9366 46.9303 20.9366C49.3406 20.9366 51.3059 22.9019 51.3059 25.3122V39.4541C51.3059 41.8694 49.3406 43.8297 46.9303 43.8297C44.52 43.8297 42.5547 41.8694 42.5547 39.4541V25.3122ZM42.5547 56.562C42.5547 54.1367 44.52 52.1614 46.9303 52.1614C49.3406 52.1614 51.3059 54.1116 51.3059 56.507C51.3059 58.9723 49.3406 60.9376 46.9303 60.9376C44.52 60.9376 42.5547 58.9723 42.5547 56.562Z" fill="white"/>
</svg>
